<svg width="100" height="30" fill="none" xmlns="http://www.w3.org/2000/svg">
 <path fill="#121828" d="M13.5 13.3l-1 1.1-1.3 1-1.6.7-1.8.3a9 9 0 01-3.4-.6 6.7 6.7 0 01-3.9-4c-.3-1-.5-2-.5-3.2A7 7 0 01.8 5c.4-1 1-2 1.7-2.7C3.2 1.6 4.1 1 5.1.6a8.9 8.9 0 017.9.7l.3 3.7h-1.7a4 4 0 00-1.2-1.8c-.6-.4-1.4-.6-2.5-.6A3.4 3.4 0 005.3 4l-.8 1.6c-.2.7-.3 1.6-.3 2.5a6.7 6.7 0 001.1 4.1c.4.5.8.8 1.3 1a4.1 4.1 0 003.9-.2 7 7 0 001.5-1.2l1.5 1.6v-.1zm8.8-6.5c0-.6-.1-1-.4-1.2-.3-.3-.8-.4-1.5-.4h-1.1v3.2l1.3.1c.4 0 .8-.1 1.1-.4.4-.2.5-.7.5-1.3h.1zM23 16a23 23 0 00-1.7-2.6l-.9-1.4-.8-1.2h-.3v3c0 .1 0 .3.2.4l.6.2V16h-4.8v-.3c.4-1.6.6-3.2.5-4.8V5.5c0-.2 0-.5-.2-.6a.7.7 0 00-.5-.3l-.8-.1V2.8h7a6 6 0 011.8.3c.5.1 1 .4 1.5.7.4.3.8.7 1 1.2.3.4.4 1 .4 1.5 0 1-.2 2-.7 2.6-.5.7-1.2 1.2-2.2 1.4l.5.7 1.1 1.4 1 1.3.6.3.7.2V16h-4zm16.5-3.5l-.5 1.8-.2.9-.2.8H28.5v-.5c.4-1.3.6-2.6.6-4v-6c0-.3 0-.5-.2-.6a.7.7 0 00-.5-.3l-.8-.1V2.8h10.9l.7 2.8.3.8h-2c-.3-.5-.7-.8-1-1-.5-.2-1-.3-1.8-.3h-2V8h3.1l.6-.3h.8L38 11h-1.4a2 2 0 00-.3-.4 1 1 0 00-.4-.2l-.5-.1h-2.9V13l.1.6.4.1h3.2l.6-.3.5-.4.5-.6h1.7v.1zm7.6-6l1-.9.3-1.2c0-.6-.2-1-.5-1.3-.4-.3-.8-.5-1.3-.5a2 2 0 00-1.2.4c-.3.2-.5.6-.5 1.1 0 .4 0 .6.2.9.3.4.8.8 1.3 1l.7.4v.1zm1.5 5.3c0-.5-.1-.8-.3-1-.1-.3-.3-.6-.6-.8l-.8-.4-1-.4c-.4.3-.8.6-1 1-.2.4-.3.8-.3 1.4 0 .7.2 1.2.6 1.6a2.1 2.1 0 001.5.6c.6 0 1-.2 1.4-.6.3-.3.5-.8.5-1.4zm3.3-.4c0 .7-.1 1.4-.4 2-.3.6-.7 1-1.2 1.5-.5.4-1.1.8-1.8 1-1.3.4-2.7.4-4 0-.6-.2-1.2-.4-1.7-.8a4.5 4.5 0 01-1.5-3.1c0-1 .3-1.7.8-2.2.5-.6 1.2-1.2 2-1.6l-1-.6a5 5 0 01-.7-.8l-.6-1-.2-1.2c0-.6.1-1.2.4-1.7.3-.5.6-1 1.1-1.4.5-.4 1-.8 1.7-1l2.1-.3a4 4 0 011.9.3l1.4.8c.5.3.8.7 1 1.2a3.2 3.2 0 01.2 2.7l-.6.9-.8.8-1 .7 1 .7c.7.4 1.3 1 1.7 1.8l.2 1.3zm2.9 4.6v-.4a8 8 0 00.5-1.9V5.5l-.1-.6a.7.7 0 00-.5-.3l-.8-.1V2.8h5.5v.5l-.3.6-.1.7v1.1l-.1 1.9V14l.5.2h.2l.4.1V16h-5.2zM74.9 3.2l-.4.7a38.9 38.9 0 00-1.1 2.4L69.5 16H68c-.6 0-1.1-.1-1.4-.4a3 3 0 01-.8-1.2l-3.6-8.8c-.1-.3-.2-.5-.4-.6-.1-.2-.3-.3-.6-.3l-.6-.2V2.8H66v.5l-.2.9.1.7c0 .3.2.6.3.8l2 5.8h.1l2.2-5.4.2-.5v-.3c0-.2-.1-.4-.3-.5l-1-.3V2.8h5.5v.5-.1zm12.9 9.4l-.4 1.8-.3.9-.2.8H76.8v-.5c.4-1.3.6-2.6.6-4v-6c0-.3-.1-.5-.3-.6a.7.7 0 00-.5-.3l-.8-.1V2.8h11l.7 2.8.2.8h-2c-.3-.5-.6-.8-1-1-.4-.2-1-.3-1.8-.3h-2V8h3.3l.6-.3h.7l.4 1.6.4 1.7h-1.4a2 2 0 00-.3-.4l-.3-.2-.6-.1h-2.8v3.4l.4.1h3.1c.4-.1.8-.4 1.1-.7l.5-.6h1.8v.1z"/></svg>

